<?xml version="1.0" standalone="no"?>
<!DOCTYPE svg PUBLIC "-//W3C//DTD SVG 20010904//EN"
 "http://www.w3.org/TR/2001/REC-SVG-20010904/DTD/svg10.dtd">
<svg version="1.0" xmlns="http://www.w3.org/2000/svg"
 width="625.000000pt" height="399.000000pt" viewBox="0 0 625.000000 399.000000"
 preserveAspectRatio="xMidYMid meet">

<g transform="translate(0.000000,399.000000) scale(0.100000,-0.100000)"
fill="#000000" stroke="none">
<path d="M5770 3934 c-256 -31 -502 -163 -729 -394 -136 -137 -330 -383 -502
-635 -86 -125 -327 -532 -439 -740 -23 -44 -50 -88 -59 -98 -44 -52 -599 -421
-1025 -684 l-200 -123 -255 0 c-250 0 -712 21 -881 40 -47 6 -88 10 -92 10 -4
0 -39 38 -77 84 -226 270 -454 442 -701 528 -92 32 -100 33 -260 33 -134 0
-175 -3 -220 -18 -67 -23 -120 -60 -150 -106 -44 -67 -22 -186 47 -267 26 -30
100 -87 154 -118 179 -103 585 -203 999 -246 63 -7 121 -17 128 -23 7 -6 30
-36 50 -66 48 -73 218 -317 249 -358 l24 -32 -33 -17 c-485 -257 -1017 -451
-1288 -470 -118 -8 -137 -13 -169 -43 -38 -35 -41 -81 -10 -112 20 -20 29 -21
118 -16 88 4 111 10 271 70 344 128 701 284 1060 463 l105 53 24 -27 c197
-224 373 -352 571 -413 107 -34 286 -33 379 1 119 42 236 122 346 234 140 142
311 370 455 606 45 74 83 136 85 137 1 2 66 10 145 18 380 40 687 92 921 156
49 13 79 47 79 88 0 28 -9 27 -153 -13 -134 -38 -223 -56 -427 -85 -158 -23
-480 -55 -487 -48 -2 3 38 83 90 179 52 95 127 236 167 313 40 77 81 155 92
172 12 21 87 80 201 160 1021 716 1610 1323 1619 1671 2 72 -6 96 -39 117 -27
18 -116 27 -183 19z m3 -135 c44 -54 -33 -237 -178 -419 -141 -178 -484 -502
-811 -766 -210 -169 -423 -328 -430 -321 -4 3 9 34 29 69 19 35 47 86 62 113
180 328 443 738 590 920 83 103 225 242 306 299 78 56 190 104 278 121 90 17
130 12 154 -16z m-5038 -1939 c158 -40 314 -138 464 -291 100 -100 196 -217
187 -226 -4 -4 -71 3 -149 15 -544 85 -845 230 -847 407 -1 101 154 144 345
95z m3145 -102 c-7 -13 -68 -125 -137 -249 l-125 -226 -86 -7 c-173 -12 -492
-19 -492 -10 0 5 42 33 93 63 51 30 121 72 157 94 36 23 83 52 105 65 22 13
141 88 265 166 124 78 226 139 228 135 2 -5 -2 -18 -8 -31z m-1810 -608 c129
-6 297 -10 373 -10 75 0 137 -4 137 -9 0 -9 -240 -147 -480 -276 l-125 -67
-32 39 c-51 62 -243 327 -243 337 0 4 30 5 68 2 37 -4 173 -11 302 -16z m1469
-2 c-64 -121 -238 -378 -354 -523 -170 -212 -299 -307 -459 -336 -112 -21
-246 20 -384 118 -112 78 -323 301 -300 317 1 1 125 67 273 146 149 78 320
171 380 205 l111 63 299 12 c165 7 302 14 304 16 2 2 35 4 73 4 68 0 69 0 57
-22z"/>
<path d="M5200 1290 c-157 -39 -274 -99 -417 -214 -187 -151 -349 -369 -397
-535 -21 -71 -21 -197 0 -258 16 -48 52 -96 87 -115 66 -35 224 -25 379 26
191 62 339 142 622 334 289 195 666 496 666 532 0 55 -54 28 -222 -109 -356
-289 -757 -561 -928 -629 -69 -28 -181 -52 -240 -51 -72 0 -141 28 -168 69
-47 69 -16 212 75 347 94 142 259 318 383 411 80 60 179 103 237 104 60 2 73
-5 73 -38 0 -17 -21 -47 -65 -94 -65 -69 -77 -97 -52 -119 20 -16 72 -24 102
-17 49 12 163 134 208 223 35 66 14 125 -51 143 -58 16 -208 11 -292 -10z"/>
</g>
</svg>
